<svg width="33" height="31" viewBox="0 0 33 31" fill="none" xmlns="http://www.w3.org/2000/svg">
<g id="&#240;&#159;&#166;&#134; icon &#34;circle twitterbird&#34;">
<path id="Vector" d="M16.4803 0.586914C18.767 0.586914 20.9092 0.985261 22.9068 1.78195C24.9044 2.57865 26.6523 3.65901 28.1505 5.02305C29.6487 6.38708 30.8315 7.9865 31.6989 9.82131C32.5663 11.6561 33 13.6237 33 15.7241C33 17.8245 32.5663 19.7921 31.6989 21.6269C30.8315 23.4617 29.6487 25.0671 28.1505 26.4432C26.6523 27.8193 24.9044 28.9057 22.9068 29.7024C20.9092 30.4991 18.767 30.8975 16.4803 30.8975C14.1935 30.8975 12.0514 30.4991 10.0538 29.7024C8.05615 28.9057 6.31482 27.8193 4.82975 26.4432C3.34468 25.0671 2.16846 23.4617 1.30108 21.6269C0.433692 19.7921 0 17.8245 0 15.7241C0 13.6237 0.433692 11.6561 1.30108 9.82131C2.16846 7.9865 3.34468 6.38708 4.82975 5.02305C6.31482 3.65901 8.05615 2.57865 10.0538 1.78195C12.0514 0.985261 14.1935 0.586914 16.4803 0.586914ZM24.681 12.4649C25.4433 11.9338 26.1135 11.294 26.6918 10.5456C26.3238 10.6904 25.9492 10.8111 25.5681 10.9077C25.187 11.0043 24.7861 11.0767 24.3656 11.125C24.7861 10.8836 25.1541 10.5878 25.4695 10.2378C25.7849 9.8877 26.0084 9.50746 26.1398 9.09705C25.7455 9.29018 25.3381 9.46522 24.9176 9.62214C24.497 9.77906 24.0633 9.89374 23.6165 9.96617C23.2485 9.62818 22.8148 9.35054 22.3154 9.13326C21.816 8.91598 21.264 8.80734 20.6595 8.80734C20.1075 8.80734 19.5884 8.90391 19.1022 9.09705C18.6159 9.29018 18.1953 9.55575 17.8405 9.89374C17.4857 10.2317 17.2031 10.624 16.9928 11.0707C16.7826 11.5173 16.6774 11.9941 16.6774 12.5011C16.6774 12.646 16.684 12.7908 16.6971 12.9357C16.7103 13.0805 16.73 13.2133 16.7563 13.334C15.1004 13.2616 13.5627 12.8874 12.1434 12.2114C10.724 11.5354 9.51493 10.6301 8.51613 9.49539C8.14815 10.0507 7.96416 10.6663 7.96416 11.3423C7.96416 11.97 8.12844 12.5554 8.45699 13.0986C8.78554 13.6418 9.21266 14.0824 9.73835 14.4204C9.05496 14.3721 8.45042 14.2152 7.92473 13.9496V13.9858C7.92473 14.9033 8.23357 15.6939 8.85125 16.3578C9.46894 17.0217 10.2378 17.4382 11.1577 17.6072C10.9737 17.6555 10.7963 17.6917 10.6254 17.7158C10.4546 17.74 10.2772 17.752 10.0932 17.752C9.96177 17.752 9.83692 17.746 9.71864 17.7339C9.60036 17.7219 9.47551 17.7037 9.34409 17.6796C9.60693 18.4039 10.0735 19.0074 10.7437 19.4903C11.414 19.9731 12.1959 20.2145 13.0896 20.2145C12.4062 20.7215 11.6374 21.1138 10.7832 21.3915C9.92891 21.6691 9.04182 21.8079 8.12186 21.8079C7.93787 21.8079 7.76703 21.8019 7.60932 21.7898C7.45161 21.7777 7.29391 21.7596 7.1362 21.7355C8.02987 22.2666 8.99582 22.677 10.034 22.9668C11.0723 23.2565 12.1565 23.4013 13.2867 23.4013C15.1266 23.4013 16.7563 23.0814 18.1756 22.4417C19.595 21.8019 20.7843 20.9811 21.7437 19.9792C22.7031 18.9773 23.4325 17.8546 23.9319 16.6113C24.4313 15.368 24.681 14.1428 24.681 12.9357V12.4649Z" fill="#E3E3E3"/>
</g>
</svg>
