<svg width="35" height="31" viewBox="0 0 35 31" fill="none" xmlns="http://www.w3.org/2000/svg">
<g id="&#240;&#159;&#166;&#134; icon &#34;circle instagram&#34;">
<path id="Vector" d="M17.3118 19.0919C16.7822 19.0919 16.2873 19.0074 15.8274 18.8384C15.3674 18.6694 14.9632 18.4341 14.6147 18.1323C14.2662 17.8305 13.9944 17.4744 13.7993 17.064C13.6041 16.6536 13.5066 16.219 13.5066 15.7603C13.5066 15.3016 13.6041 14.8731 13.7993 14.4747C13.9944 14.0764 14.2662 13.7263 14.6147 13.4245C14.9632 13.1228 15.3674 12.8874 15.8274 12.7184C16.2873 12.5494 16.7822 12.4649 17.3118 12.4649C18.3712 12.4649 19.2702 12.7848 20.009 13.4245C20.7477 14.0643 21.1171 14.8429 21.1171 15.7603C21.1171 16.219 21.0195 16.6536 20.8244 17.064C20.6292 17.4744 20.3574 17.8305 20.009 18.1323C19.6605 18.4341 19.2563 18.6694 18.7963 18.8384C18.3363 19.0074 17.8415 19.0919 17.3118 19.0919ZM23.417 15.7603C23.417 15.543 23.403 15.3197 23.3752 15.0904C23.3473 14.861 23.3055 14.6498 23.2497 14.4566H24.9642V21.7355C24.9642 21.9286 24.8945 22.0856 24.7551 22.2063C24.6157 22.327 24.4345 22.3873 24.2115 22.3873H10.4122C10.1892 22.3873 10.008 22.327 9.86858 22.2063C9.72919 22.0856 9.6595 21.9286 9.6595 21.7355V14.4566H11.374C11.3182 14.6498 11.2764 14.861 11.2485 15.0904C11.2206 15.3197 11.2067 15.543 11.2067 15.7603C11.2067 16.4846 11.367 17.1726 11.6876 17.8245C12.0082 18.4763 12.4403 19.0436 12.9839 19.5265C13.5275 20.0093 14.1756 20.3896 14.9283 20.6672C15.681 20.9448 16.4755 21.0837 17.3118 21.0837C18.1481 21.0837 18.9427 20.9448 19.6953 20.6672C20.448 20.3896 21.0962 20.0093 21.6398 19.5265C22.1834 19.0436 22.6155 18.4763 22.9361 17.8245C23.2567 17.1726 23.417 16.4846 23.417 15.7603ZM17.4791 0.586914C19.9044 0.586914 22.1764 0.985261 24.2951 1.78195C26.4138 2.57865 28.2676 3.65901 29.8566 5.02305C31.4456 6.38708 32.7001 7.9865 33.6201 9.82131C34.54 11.6561 35 13.6237 35 15.7241C35 17.8245 34.54 19.7921 33.6201 21.6269C32.7001 23.4617 31.4456 25.0671 29.8566 26.4432C28.2676 27.8193 26.4138 28.9057 24.2951 29.7024C22.1764 30.4991 19.9044 30.8975 17.4791 30.8975C15.0538 30.8975 12.7818 30.4991 10.6631 29.7024C8.5444 28.9057 6.69753 27.8193 5.12246 26.4432C3.54739 25.0671 2.29988 23.4617 1.37993 21.6269C0.459976 19.7921 0 17.8245 0 15.7241C0 13.6237 0.459976 11.6561 1.37993 9.82131C2.29988 7.9865 3.54739 6.38708 5.12246 5.02305C6.69753 3.65901 8.5444 2.57865 10.6631 1.78195C12.7818 0.985261 15.0538 0.586914 17.4791 0.586914ZM27.264 9.13326C27.264 8.57799 27.041 8.10722 26.595 7.72094C26.1489 7.33466 25.6053 7.14153 24.9642 7.14153H9.6595C9.01832 7.14153 8.47471 7.33466 8.02867 7.72094C7.58264 8.10722 7.35962 8.57799 7.35962 9.13326V22.3873C7.35962 22.9426 7.58264 23.4134 8.02867 23.7997C8.47471 24.1859 9.01832 24.3791 9.6595 24.3791H24.9642C25.6053 24.3791 26.1489 24.1859 26.595 23.7997C27.041 23.4134 27.264 22.9426 27.264 22.3873V9.13326ZM24.2115 9.13326C24.4345 9.13326 24.6157 9.19965 24.7551 9.33243C24.8945 9.46522 24.9642 9.62818 24.9642 9.82131V11.813C24.9642 12.0062 24.8945 12.1631 24.7551 12.2838C24.6157 12.4045 24.4345 12.4649 24.2115 12.4649H21.9116C21.6886 12.4649 21.5004 12.4045 21.3471 12.2838C21.1937 12.1631 21.1171 12.0062 21.1171 11.813V9.82131C21.1171 9.62818 21.1937 9.46522 21.3471 9.33243C21.5004 9.19965 21.6886 9.13326 21.9116 9.13326H24.2115Z" fill="#E3E3E3"/>
</g>
</svg>
