<svg width="34" height="31" viewBox="0 0 34 31" fill="none" xmlns="http://www.w3.org/2000/svg">
<g id="&#240;&#159;&#166;&#134; icon &#34;circle facebook&#34;">
<path id="Vector" d="M16.9797 0.586914C19.3302 0.586914 21.5387 0.984311 23.6055 1.77911C25.6722 2.5739 27.4756 3.65771 29.0155 5.03054C30.5554 6.40336 31.7712 8.00499 32.6627 9.83543C33.5542 11.6659 34 13.6288 34 15.7241C34 17.8195 33.5542 19.7884 32.6627 21.6309C31.7712 23.4734 30.5554 25.081 29.0155 26.4538C27.4756 27.8267 25.6722 28.9105 23.6055 29.7053C21.5387 30.5001 19.3302 30.8975 16.9797 30.8975C14.6293 30.8975 12.4275 30.5001 10.3743 29.7053C8.32102 28.9105 6.52443 27.8267 4.98451 26.4538C3.44458 25.081 2.22884 23.4734 1.33731 21.6309C0.445769 19.7884 0 17.8195 0 15.7241C0 13.6288 0.445769 11.6659 1.33731 9.83543C2.22884 8.00499 3.44458 6.40336 4.98451 5.03054C6.52443 3.65771 8.32102 2.5739 10.3743 1.77911C12.4275 0.984311 14.6293 0.586914 16.9797 0.586914ZM23.3826 7.19816H19.7759C19.0735 7.19816 18.4251 7.30654 17.8308 7.5233C17.2364 7.74006 16.7163 8.02908 16.2706 8.39035C15.8248 8.75162 15.4803 9.16106 15.2372 9.61867C14.994 10.0763 14.8725 10.5339 14.8725 10.9915V12.9062H11.671V16.6634H14.8725V24.2501H19.1275V16.6634H22.2884V12.9062H19.1275V11.9308C19.1275 11.6418 19.2559 11.413 19.5125 11.2444C19.7692 11.0758 19.9921 10.9915 20.1812 10.9915H23.3826V7.19816Z" fill="#E3E3E3"/>
</g>
</svg>
